{
	"asset":{
		"generator":"Khronos glTF Blender I/O v4.2.70",
		"version":"2.0"
	},
	"extensionsUsed":[
		"KHR_materials_emissive_strength",
		"KHR_materials_specular",
		"KHR_materials_ior"
	],
	"scene":0,
	"scenes":[
		{
			"name":"Scene",
			"nodes":[
				1,
				2,
				3
			]
		}
	],
	"nodes":[
		{
			"mesh":0,
			"name":"Icosphere"
		},
		{
			"children":[
				0
			],
			"mesh":1,
			"name":"Plane"
		},
		{
			"mesh":2,
			"name":"Plane.001"
		},
		{
			"mesh":3,
			"name":"Icosphere.001"
		}
	],
	"materials":[
		{
			"doubleSided":true,
			"emissiveFactor":[
				1,
				1,
				1
			],
			"extensions":{
				"KHR_materials_emissive_strength":{
					"emissiveStrength":10
				}
			},
			"name":"Material.001",
			"pbrMetallicRoughness":{
				"baseColorFactor":[
					0,
					0,
					0,
					1
				]
			}
		},
		{
			"doubleSided":true,
			"emissiveFactor":[
				0.09999990463256836,
				0.09999990463256836,
				0.09999990463256836
			],
			"name":"Material.002",
			"pbrMetallicRoughness":{
				"baseColorFactor":[
					0,
					0,
					0,
					1
				]
			}
		},
		{
			"doubleSided":true,
			"extensions":{
				"KHR_materials_specular":{
					"specularColorFactor":[
						1.0818182229995728,
						0.9461221654128309,
						1.0305383651893152
					]
				},
				"KHR_materials_ior":{
					"ior":1
				}
			},
			"name":"Material.003",
			"pbrMetallicRoughness":{
				"metallicFactor":0.12886598706245422,
				"roughnessFactor":0.07731962203979492
			}
		},
		{
			"doubleSided":true,
			"emissiveFactor":[
				1,
				1,
				1
			],
			"extensions":{
				"KHR_materials_emissive_strength":{
					"emissiveStrength":10
				}
			},
			"name":"Material.004",
			"pbrMetallicRoughness":{
				"baseColorFactor":[
					0,
					0,
					0,
					1
				]
			}
		}
	],
	"meshes":[
		{
			"name":"Icosphere",
			"primitives":[
				{
					"attributes":{
						"POSITION":0,
						"NORMAL":1,
						"TEXCOORD_0":2
					},
					"indices":3,
					"material":0
				}
			]
		},
		{
			"name":"Plane",
			"primitives":[
				{
					"attributes":{
						"POSITION":4,
						"NORMAL":5,
						"TEXCOORD_0":6
					},
					"indices":7,
					"material":1
				}
			]
		},
		{
			"name":"Plane.001",
			"primitives":[
				{
					"attributes":{
						"POSITION":8,
						"NORMAL":9,
						"TEXCOORD_0":10
					},
					"indices":7,
					"material":2
				}
			]
		},
		{
			"name":"Icosphere.001",
			"primitives":[
				{
					"attributes":{
						"POSITION":11,
						"NORMAL":12,
						"TEXCOORD_0":13
					},
					"indices":3,
					"material":3
				}
			]
		}
	],
	"accessors":[
		{
			"bufferView":0,
			"componentType":5126,
			"count":729,
			"max":[
				0.7169956564903259,
				0.7169956564903259,
				0.7169955968856812
			],
			"min":[
				-0.7169955968856812,
				-0.7169956564903259,
				-0.7169955968856812
			],
			"type":"VEC3"
		},
		{
			"bufferView":1,
			"componentType":5126,
			"count":729,
			"type":"VEC3"
		},
		{
			"bufferView":2,
			"componentType":5126,
			"count":729,
			"type":"VEC2"
		},
		{
			"bufferView":3,
			"componentType":5123,
			"count":3840,
			"type":"SCALAR"
		},
		{
			"bufferView":4,
			"componentType":5126,
			"count":4,
			"max":[
				1,
				0,
				1
			],
			"min":[
				-1,
				0,
				-1
			],
			"type":"VEC3"
		},
		{
			"bufferView":5,
			"componentType":5126,
			"count":4,
			"type":"VEC3"
		},
		{
			"bufferView":6,
			"componentType":5126,
			"count":4,
			"type":"VEC2"
		},
		{
			"bufferView":7,
			"componentType":5123,
			"count":6,
			"type":"SCALAR"
		},
		{
			"bufferView":8,
			"componentType":5126,
			"count":4,
			"max":[
				1,
				0,
				1
			],
			"min":[
				-1,
				0,
				-1
			],
			"type":"VEC3"
		},
		{
			"bufferView":9,
			"componentType":5126,
			"count":4,
			"type":"VEC3"
		},
		{
			"bufferView":10,
			"componentType":5126,
			"count":4,
			"type":"VEC2"
		},
		{
			"bufferView":11,
			"componentType":5126,
			"count":729,
			"max":[
				0.7169956564903259,
				0.7169956564903259,
				0.7169955968856812
			],
			"min":[
				-0.7169955968856812,
				-0.7169956564903259,
				-0.7169955968856812
			],
			"type":"VEC3"
		},
		{
			"bufferView":12,
			"componentType":5126,
			"count":729,
			"type":"VEC3"
		},
		{
			"bufferView":13,
			"componentType":5126,
			"count":729,
			"type":"VEC2"
		}
	],
	"bufferViews":[
		{
			"buffer":0,
			"byteLength":8748,
			"byteOffset":0,
			"target":34962
		},
		{
			"buffer":0,
			"byteLength":8748,
			"byteOffset":8748,
			"target":34962
		},
		{
			"buffer":0,
			"byteLength":5832,
			"byteOffset":17496,
			"target":34962
		},
		{
			"buffer":0,
			"byteLength":7680,
			"byteOffset":23328,
			"target":34963
		},
		{
			"buffer":0,
			"byteLength":48,
			"byteOffset":31008,
			"target":34962
		},
		{
			"buffer":0,
			"byteLength":48,
			"byteOffset":31056,
			"target":34962
		},
		{
			"buffer":0,
			"byteLength":32,
			"byteOffset":31104,
			"target":34962
		},
		{
			"buffer":0,
			"byteLength":12,
			"byteOffset":31136,
			"target":34963
		},
		{
			"buffer":0,
			"byteLength":48,
			"byteOffset":31148,
			"target":34962
		},
		{
			"buffer":0,
			"byteLength":48,
			"byteOffset":31196,
			"target":34962
		},
		{
			"buffer":0,
			"byteLength":32,
			"byteOffset":31244,
			"target":34962
		},
		{
			"buffer":0,
			"byteLength":8748,
			"byteOffset":31276,
			"target":34962
		},
		{
			"buffer":0,
			"byteLength":8748,
			"byteOffset":40024,
			"target":34962
		},
		{
			"buffer":0,
			"byteLength":5832,
			"byteOffset":48772,
			"target":34962
		}
	],
	"buffers":[
		{
			"byteLength":54604,
			"uri":"alien.bin"
		}
	]
}
